<svg xmlns="http://www.w3.org/2000/svg" xmlns:xlink="http://www.w3.org/1999/xlink" version="1.1" data-diagram-type="CLASS" style="width:2793px;height:1686px;background:#FFFFFF;" width="2793px" height="1686px" viewBox="0 0 2793 1686" zoomAndPan="magnify" preserveAspectRatio="none" contentStyleType="text/css"><?plantuml 1.2026.8?><defs/><g font-family="sans-serif" lengthAdjust="spacing"><g class="title" data-source-line="17"><text x="1201.712" y="22.995" fill="#000" font-size="14" textLength="383.065" font-weight="700" font-family="DejaVu Sans">CD-2 — Orquestación de Diagnóstico, RAG y LLM</text><text x="1213.959" y="39.292" fill="#000" font-size="14" textLength="358.572" font-weight="700" font-family="DejaVu Sans">Zoom-In: diagnostic_orchestrator_component</text></g><!--cluster layer_1--><g class="cluster" data-qualified-name="layer_1" id="ent0001" data-source-line="23"><rect x="975.49" y="60.594" width="915" height="267" fill="#EDF5F0" style="stroke:#000;stroke-width:1.5;" rx="2.5" ry="2.5"/><text x="1395.314" y="73.732" fill="#000" font-size="12" textLength="75.352" font-weight="700" font-family="DejaVu Sans">application</text><text x="1303.592" y="87.701" fill="#000" font-size="12" textLength="258.797" font-weight="700" font-family="DejaVu Sans">application.internal.commandservices</text><text x="1303.873" y="101.67" fill="#000" font-size="12" textLength="258.234" font-weight="700" font-family="DejaVu Sans">application.internal.outboundservices</text></g><!--cluster layer_2--><g class="cluster" data-qualified-name="layer_2" id="ent0005" data-source-line="35"><rect x="62.49" y="374.594" width="1221" height="875" fill="#FFF7E8" style="stroke:#000;stroke-width:1.5;" rx="2.5" ry="2.5"/><text x="647.944" y="387.732" fill="#000" font-size="12" textLength="50.092" font-weight="700" font-family="DejaVu Sans">domain</text><text x="579.694" y="401.701" fill="#000" font-size="12" textLength="186.592" font-weight="700" font-family="DejaVu Sans">domain.model.valueobjects</text><text x="617.9" y="415.67" fill="#000" font-size="12" textLength="110.18" font-weight="700" font-family="DejaVu Sans">domain.services</text><text x="584.071" y="429.639" fill="#000" font-size="12" textLength="177.838" font-weight="700" font-family="DejaVu Sans">domain.model.aggregates</text><text x="596.76" y="443.607" fill="#000" font-size="12" textLength="152.461" font-weight="700" font-family="DejaVu Sans">domain.model.entities</text></g><!--cluster layer_3--><g class="cluster" data-qualified-name="layer_3" id="ent0027" data-source-line="93"><rect x="1307.49" y="1117.594" width="1150" height="409" fill="#F1EFF7" style="stroke:#000;stroke-width:1.5;" rx="2.5" ry="2.5"/><text x="1835.149" y="1130.732" fill="#000" font-size="12" textLength="94.682" font-weight="700" font-family="DejaVu Sans">infrastructure</text><text x="1810.42" y="1144.701" fill="#000" font-size="12" textLength="144.141" font-weight="700" font-family="DejaVu Sans">infrastructure.clients</text><text x="1823.208" y="1158.67" fill="#000" font-size="12" textLength="118.564" font-weight="700" font-family="DejaVu Sans">infrastructure.acl</text><text x="1780.833" y="1172.639" fill="#000" font-size="12" textLength="203.314" font-weight="700" font-family="DejaVu Sans">infrastructure.persistence.jpa</text></g><!--cluster layer_4--><g class="cluster" data-qualified-name="layer_4" id="ent0038" data-source-line="117"><rect x="2481.49" y="1310.594" width="298" height="114" fill="#F0F0F0" style="stroke:#000;stroke-width:1.5;" rx="2.5" ry="2.5"/><text x="2602.277" y="1323.732" fill="#000" font-size="12" textLength="56.426" font-weight="700" font-family="DejaVu Sans">external</text><text x="2556.697" y="1337.701" fill="#000" font-size="12" textLength="147.586" font-weight="700" font-family="DejaVu Sans">external.rag_retrieval</text><text x="2555.294" y="1351.67" fill="#000" font-size="12" textLength="150.393" font-weight="700" font-family="DejaVu Sans">external.azure_openai</text></g><!--class DiagnosticOrchestrator--><g class="entity" data-qualified-name="layer_1.DiagnosticOrchestrator" id="ent0002" data-source-line="24"><rect x="991.49" y="120.594" width="300.176" height="59.906" fill="#F1F1F1" style="stroke:#536578;stroke-width:0.5;" rx="2.5" ry="2.5"/><text x="1081.223" y="136.732" fill="#000" font-size="12" textLength="120.709" font-style="italic" font-family="DejaVu Sans">«CommandService»</text><text x="1071.793" y="150.701" fill="#000" font-size="12" textLength="139.57" font-family="DejaVu Sans">DiagnosticOrchestrator</text><line x1="992.49" y1="158.531" x2="1290.666" y2="158.531" style="stroke:#536578;stroke-width:0.5;"/><text x="997.49" y="173.67" fill="#000" font-size="12" textLength="288.176" font-family="DejaVu Sans">+diagnose(GenerateDiagnosisCommand): UUID</text></g><!--class KnowledgeRetrievalPort--><g class="entity" data-qualified-name="layer_1.KnowledgeRetrievalPort" id="ent0003" data-source-line="27"><rect x="1322.49" y="251.594" width="552.322" height="59.906" fill="#F1F1F1" style="stroke:#536578;stroke-width:0.5;" rx="2.5" ry="2.5"/><text x="1579.201" y="267.732" fill="#000" font-size="12" textLength="38.9" font-style="italic" font-family="DejaVu Sans">«Port»</text><text x="1526.628" y="281.701" fill="#000" font-size="12" textLength="144.047" font-style="italic" font-family="DejaVu Sans">KnowledgeRetrievalPort</text><line x1="1323.49" y1="289.531" x2="1873.812" y2="289.531" style="stroke:#536578;stroke-width:0.5;"/><text x="1328.49" y="304.67" fill="#000" font-size="12" textLength="540.322" font-family="DejaVu Sans">+retrieveAuthorizedKnowledge(SanitizedDiagnosticContext): List&lt;Map&lt;String, Object>></text></g><!--class DiagnosticLlmGateway--><g class="entity" data-qualified-name="layer_1.DiagnosticLlmGateway" id="ent0004" data-source-line="30"><rect x="990.99" y="251.594" width="290.936" height="59.906" fill="#F1F1F1" style="stroke:#536578;stroke-width:0.5;" rx="2.5" ry="2.5"/><text x="1117.008" y="267.732" fill="#000" font-size="12" textLength="38.9" font-style="italic" font-family="DejaVu Sans">«Port»</text><text x="1067.408" y="281.701" fill="#000" font-size="12" textLength="138.1" font-style="italic" font-family="DejaVu Sans">DiagnosticLlmGateway</text><line x1="991.99" y1="289.531" x2="1280.926" y2="289.531" style="stroke:#536578;stroke-width:0.5;"/><text x="996.99" y="304.67" fill="#000" font-size="12" textLength="278.936" font-family="DejaVu Sans">+infer(SanitizedDiagnosticContext): Diagnosis</text></g><!--class SanitizedDiagnosticContext--><g class="entity" data-qualified-name="layer_2.SanitizedDiagnosticContext" id="ent0006" data-source-line="36"><rect x="502.99" y="469.594" width="337.277" height="87.844" fill="#F1F1F1" style="stroke:#536578;stroke-width:0.5;" rx="2.5" ry="2.5"/><text x="627.803" y="485.732" fill="#000" font-size="12" textLength="87.65" font-style="italic" font-family="DejaVu Sans">«ValueObject»</text><text x="588.704" y="499.701" fill="#000" font-size="12" textLength="165.85" font-family="DejaVu Sans">SanitizedDiagnosticContext</text><line x1="503.99" y1="507.531" x2="839.267" y2="507.531" style="stroke:#536578;stroke-width:0.5;"/><text x="508.99" y="522.67" fill="#000" font-size="12" textLength="258.023" font-family="DejaVu Sans">-sanitizedPrioritizedEvidence: List&lt;String></text><text x="508.99" y="536.639" fill="#000" font-size="12" textLength="248.947" font-family="DejaVu Sans">-correlatedContext: Map&lt;String, Object></text><text x="508.99" y="550.607" fill="#000" font-size="12" textLength="325.277" font-family="DejaVu Sans">-ragRetrievedKnowledge: List&lt;Map&lt;String, Object>></text></g><g class="entity" data-qualified-name="layer_2.GMN7" id="ent0008" data-source-line="42"><path d="M436.99,734.594 L436.99,758.563 A0,0 0 0 0 436.99,758.563 L852.42,758.563 A0,0 0 0 0 852.42,758.563 L852.42,744.594 L842.42,734.594 L649.8,734.594 L666.45,557.774 L641.8,734.594 L436.99,734.594 A0,0 0 0 0 436.99,734.594" style="stroke:#C9BB8B;stroke-width:0.5;" fill="#FFFFF4"/><path d="M842.42,734.594 L842.42,744.594 L852.42,744.594 L842.42,734.594" style="stroke:#C9BB8B;stroke-width:0.5;" fill="#FFFFF4"/><text x="442.99" y="750.732" fill="#000" font-size="12" textLength="394.43" font-family="DejaVu Sans">Evidencia saneada + contexto autorizado + RAG con provenance</text></g><!--class ProbableCause--><g class="entity" data-qualified-name="layer_2.ProbableCause" id="ent0010" data-source-line="44"><rect x="216.49" y="963.594" width="95.789" height="59.906" fill="#F1F1F1" style="stroke:#536578;stroke-width:0.5;" rx="2.5" ry="2.5"/><text x="220.559" y="979.732" fill="#000" font-size="12" textLength="87.65" font-style="italic" font-family="DejaVu Sans">«ValueObject»</text><text x="219.49" y="993.701" fill="#000" font-size="12" textLength="89.789" font-family="DejaVu Sans">ProbableCause</text><line x1="217.49" y1="1001.531" x2="311.279" y2="1001.531" style="stroke:#536578;stroke-width:0.5;"/><text x="222.49" y="1016.67" fill="#000" font-size="12" textLength="80.777" font-family="DejaVu Sans">-value: String</text></g><g class="entity" data-qualified-name="layer_2.GMN11" id="ent0012" data-source-line="48"><path d="M78.49,1209.594 L78.49,1233.563 A0,0 0 0 0 78.49,1233.563 L452.746,1233.563 A0,0 0 0 0 452.746,1233.563 L452.746,1219.594 L442.746,1209.594 L269.44,1209.594 L264.62,1023.674 L261.44,1209.594 L78.49,1209.594 A0,0 0 0 0 78.49,1209.594" style="stroke:#C9BB8B;stroke-width:0.5;" fill="#FFFFF4"/><path d="M442.746,1209.594 L442.746,1219.594 L452.746,1219.594 L442.746,1209.594" style="stroke:#C9BB8B;stroke-width:0.5;" fill="#FFFFF4"/><text x="84.49" y="1225.732" fill="#000" font-size="12" textLength="353.256" font-family="DejaVu Sans">Envuelve el texto probable_cause; sin taxonomía adicional</text></g><!--class DiagnosticOutputComposer--><g class="entity" data-qualified-name="layer_2.DiagnosticOutputComposer" id="ent0014" data-source-line="50"><rect x="78.49" y="483.594" width="383.637" height="59.906" fill="#F1F1F1" style="stroke:#536578;stroke-width:0.5;" rx="2.5" ry="2.5"/><text x="217.51" y="499.732" fill="#000" font-size="12" textLength="105.598" font-style="italic" font-family="DejaVu Sans">«DomainService»</text><text x="187.307" y="513.701" fill="#000" font-size="12" textLength="166.002" font-family="DejaVu Sans">DiagnosticOutputComposer</text><line x1="79.49" y1="521.531" x2="461.127" y2="521.531" style="stroke:#536578;stroke-width:0.5;"/><text x="84.49" y="536.67" fill="#000" font-size="12" textLength="371.637" font-family="DejaVu Sans">+compose(Diagnosis, SanitizedDiagnosticContext): Diagnosis</text></g><g class="entity" data-qualified-name="layer_2.GMN15" id="ent0016" data-source-line="54"><path d="M891.99,734.594 L891.99,758.563 L1267.447,758.563 L1267.447,744.594 L1257.447,734.594 L891.99,734.594" style="stroke:#C9BB8B;stroke-width:0.5;" fill="#FFFFF4"/><path d="M1257.447,734.594 L1257.447,744.594 L1267.447,744.594 L1257.447,734.594" style="stroke:#C9BB8B;stroke-width:1;" fill="#FFFFF4"/><text x="897.99" y="750.732" fill="#000" font-size="12" textLength="354.457" font-family="DejaVu Sans">Asocia recomendaciones; evidencia y fuentes por ID lógico</text></g><!--class DiagnosisRepository--><g class="entity" data-qualified-name="layer_2.DiagnosisRepository" id="ent0018" data-source-line="56"><rect x="879.99" y="462.594" width="387.363" height="101.813" fill="#F1F1F1" style="stroke:#536578;stroke-width:0.5;" rx="2.5" ry="2.5"/><text x="1034.156" y="478.732" fill="#000" font-size="12" textLength="79.031" font-style="italic" font-family="DejaVu Sans">«Repository»</text><text x="1012.333" y="492.701" fill="#000" font-size="12" textLength="122.678" font-style="italic" font-family="DejaVu Sans">DiagnosisRepository</text><line x1="880.99" y1="500.531" x2="1266.353" y2="500.531" style="stroke:#536578;stroke-width:0.5;"/><text x="885.99" y="515.67" fill="#000" font-size="12" textLength="375.363" font-family="DejaVu Sans">+appendSnapshot(Diagnosis, List&lt;UUID>, List&lt;UUID>): UUID</text><text x="885.99" y="529.639" fill="#000" font-size="12" textLength="246.662" font-family="DejaVu Sans">+findLatest(UUID): Optional&lt;Diagnosis></text><text x="885.99" y="543.607" fill="#000" font-size="12" textLength="265.693" font-family="DejaVu Sans">+supportingEvidenceIds(UUID): List&lt;UUID></text><text x="885.99" y="557.576" fill="#000" font-size="12" textLength="246.381" font-family="DejaVu Sans">+consultedSourceIds(UUID): List&lt;UUID></text></g><!--class Diagnosis--><g class="entity" data-qualified-name="layer_2.Diagnosis" id="ent0019" data-source-line="62"><rect x="130.49" y="635.594" width="265.957" height="221.563" fill="#F1F1F1" style="stroke:#536578;stroke-width:0.5;" rx="2.5" ry="2.5"/><text x="224.718" y="651.732" fill="#000" font-size="12" textLength="77.502" font-style="italic" font-family="DejaVu Sans">«Aggregate»</text><text x="234.303" y="665.701" fill="#000" font-size="12" textLength="58.33" font-family="DejaVu Sans">Diagnosis</text><line x1="131.49" y1="673.531" x2="395.447" y2="673.531" style="stroke:#536578;stroke-width:0.5;"/><text x="136.49" y="688.67" fill="#000" font-size="12" textLength="53.484" font-family="DejaVu Sans">-id: UUID</text><text x="136.49" y="702.639" fill="#000" font-size="12" textLength="101.871" font-family="DejaVu Sans">-incidentId: UUID</text><text x="136.49" y="716.607" fill="#000" font-size="12" textLength="71.783" font-family="DejaVu Sans">-version: int</text><text x="136.49" y="730.576" fill="#000" font-size="12" textLength="145.629" font-family="DejaVu Sans">-status: DiagnosisStatus</text><text x="136.49" y="744.545" fill="#000" font-size="12" textLength="253.957" font-family="DejaVu Sans">-probableCause: ProbableCause [optional]</text><text x="136.49" y="758.514" fill="#000" font-size="12" textLength="180.545" font-family="DejaVu Sans">-explanation: String [optional]</text><text x="136.49" y="772.482" fill="#000" font-size="12" textLength="172.799" font-family="DejaVu Sans">-limitations: String [optional]</text><text x="136.49" y="786.451" fill="#000" font-size="12" textLength="178.77" font-family="DejaVu Sans">-confidence: Object [optional]</text><text x="136.49" y="800.42" fill="#000" font-size="12" textLength="223.178" font-family="DejaVu Sans">-diagnosisReadyAt: Instant [optional]</text><text x="136.49" y="814.389" fill="#000" font-size="12" textLength="124.02" font-family="DejaVu Sans">-correlationId: String</text><text x="136.49" y="828.357" fill="#000" font-size="12" textLength="112.84" font-family="DejaVu Sans">-createdAt: Instant</text><line x1="131.49" y1="835.188" x2="395.447" y2="835.188" style="stroke:#536578;stroke-width:0.5;"/><text x="136.49" y="850.326" fill="#000" font-size="12" textLength="183.439" font-family="DejaVu Sans">+assertReadySnapshot(): void</text></g><g class="entity" data-qualified-name="layer_2.GMN20" id="ent0021" data-source-line="77"><path d="M542.49,974.594 L542.49,1012.531 L870.158,1012.531 L870.158,984.594 L860.158,974.594 L542.49,974.594" style="stroke:#C9BB8B;stroke-width:0.5;" fill="#FFFFF4"/><path d="M860.158,974.594 L860.158,984.594 L870.158,984.594 L860.158,974.594" style="stroke:#C9BB8B;stroke-width:1;" fill="#FFFFF4"/><text x="548.49" y="990.732" fill="#000" font-size="12" textLength="204.217" font-family="DejaVu Sans">persisted_as: diagnosis.diagnoses</text><text x="548.49" y="1004.701" fill="#000" font-size="12" textLength="306.668" font-family="DejaVu Sans">append-only; actual = mayor versión por incidente</text></g><!--class Recommendation--><g class="entity" data-qualified-name="layer_2.Recommendation" id="ent0023" data-source-line="80"><rect x="366.49" y="928.594" width="136.02" height="129.75" fill="#F1F1F1" style="stroke:#536578;stroke-width:0.5;" rx="2.5" ry="2.5"/><text x="409.641" y="944.732" fill="#000" font-size="12" textLength="49.717" font-style="italic" font-family="DejaVu Sans">«Entity»</text><text x="381.508" y="958.701" fill="#000" font-size="12" textLength="105.984" font-family="DejaVu Sans">Recommendation</text><line x1="367.49" y1="966.531" x2="501.51" y2="966.531" style="stroke:#536578;stroke-width:0.5;"/><text x="372.49" y="981.67" fill="#000" font-size="12" textLength="53.484" font-family="DejaVu Sans">-id: UUID</text><text x="372.49" y="995.639" fill="#000" font-size="12" textLength="110.396" font-family="DejaVu Sans">-diagnosisId: UUID</text><text x="372.49" y="1009.607" fill="#000" font-size="12" textLength="114.721" font-family="DejaVu Sans">-description: String</text><text x="372.49" y="1023.576" fill="#000" font-size="12" textLength="100.354" font-family="DejaVu Sans">-critical: boolean</text><text x="372.49" y="1037.545" fill="#000" font-size="12" textLength="124.02" font-family="DejaVu Sans">-correlationId: String</text><text x="372.49" y="1051.514" fill="#000" font-size="12" textLength="112.84" font-family="DejaVu Sans">-createdAt: Instant</text></g><g class="entity" data-qualified-name="layer_2.GMN24" id="ent0025" data-source-line="89"><path d="M492.99,1209.594 L492.99,1233.563 A0,0 0 0 0 492.99,1233.563 L766.283,1233.563 A0,0 0 0 0 766.283,1233.563 L766.283,1219.594 L756.283,1209.594 L623.9,1209.594 L489.85,1058.754 L615.9,1209.594 L492.99,1209.594 A0,0 0 0 0 492.99,1209.594" style="stroke:#C9BB8B;stroke-width:0.5;" fill="#FFFFF4"/><path d="M756.283,1209.594 L756.283,1219.594 L766.283,1219.594 L756.283,1209.594" style="stroke:#C9BB8B;stroke-width:0.5;" fill="#FFFFF4"/><text x="498.99" y="1225.732" fill="#000" font-size="12" textLength="252.293" font-family="DejaVu Sans">persisted_as: diagnosis.recommendations</text></g><!--class RagRetrievalHttpAdapter--><g class="entity" data-qualified-name="layer_3.RagRetrievalHttpAdapter" id="ent0028" data-source-line="94"><rect x="1889.49" y="1191.594" width="552.322" height="59.906" fill="#F1F1F1" style="stroke:#536578;stroke-width:0.5;" rx="2.5" ry="2.5"/><text x="2134.4" y="1207.732" fill="#000" font-size="12" textLength="62.502" font-style="italic" font-family="DejaVu Sans">«Adapter»</text><text x="2090.13" y="1221.701" fill="#000" font-size="12" textLength="151.043" font-family="DejaVu Sans">RagRetrievalHttpAdapter</text><line x1="1890.49" y1="1229.531" x2="2440.812" y2="1229.531" style="stroke:#536578;stroke-width:0.5;"/><text x="1895.49" y="1244.67" fill="#000" font-size="12" textLength="540.322" font-family="DejaVu Sans">+retrieveAuthorizedKnowledge(SanitizedDiagnosticContext): List&lt;Map&lt;String, Object>></text></g><!--class AzureOpenAiDiagnosticAdapter--><g class="entity" data-qualified-name="layer_3.AzureOpenAiDiagnosticAdapter" id="ent0029" data-source-line="97"><rect x="1557.99" y="1191.594" width="290.936" height="59.906" fill="#F1F1F1" style="stroke:#536578;stroke-width:0.5;" rx="2.5" ry="2.5"/><text x="1672.207" y="1207.732" fill="#000" font-size="12" textLength="62.502" font-style="italic" font-family="DejaVu Sans">«Adapter»</text><text x="1608.846" y="1221.701" fill="#000" font-size="12" textLength="189.223" font-family="DejaVu Sans">AzureOpenAiDiagnosticAdapter</text><line x1="1558.99" y1="1229.531" x2="1847.926" y2="1229.531" style="stroke:#536578;stroke-width:0.5;"/><text x="1563.99" y="1244.67" fill="#000" font-size="12" textLength="278.936" font-family="DejaVu Sans">+infer(SanitizedDiagnosticContext): Diagnosis</text></g><!--class LlmResponseTranslator--><g class="entity" data-qualified-name="layer_3.LlmResponseTranslator" id="ent0030" data-source-line="100"><rect x="1598.49" y="1359.594" width="203.795" height="59.906" fill="#F1F1F1" style="stroke:#536578;stroke-width:0.5;" rx="2.5" ry="2.5"/><text x="1662.474" y="1375.732" fill="#000" font-size="12" textLength="75.826" font-style="italic" font-family="DejaVu Sans">«Translator»</text><text x="1629.876" y="1389.701" fill="#000" font-size="12" textLength="141.023" font-family="DejaVu Sans">LlmResponseTranslator</text><line x1="1599.49" y1="1397.531" x2="1801.285" y2="1397.531" style="stroke:#536578;stroke-width:0.5;"/><text x="1604.49" y="1412.67" fill="#000" font-size="12" textLength="191.795" font-family="DejaVu Sans">+toDiagnosis(String): Diagnosis</text></g><g class="entity" data-qualified-name="layer_3.GMN31" id="ent0032" data-source-line="104"><path d="M1542.99,1486.594 L1542.99,1510.563 A0,0 0 0 0 1542.99,1510.563 L1857.844,1510.563 A0,0 0 0 0 1857.844,1510.563 L1857.844,1496.594 L1847.844,1486.594 L1704.49,1486.594 L1700.49,1419.834 L1696.49,1486.594 L1542.99,1486.594 A0,0 0 0 0 1542.99,1486.594" style="stroke:#C9BB8B;stroke-width:0.5;" fill="#FFFFF4"/><path d="M1847.844,1486.594 L1847.844,1496.594 L1857.844,1496.594 L1847.844,1486.594" style="stroke:#C9BB8B;stroke-width:0.5;" fill="#FFFFF4"/><text x="1548.99" y="1502.732" fill="#000" font-size="12" textLength="293.854" font-family="DejaVu Sans">ACL; respuesta Azure convertida a tipos internos</text></g><!--class JpaDiagnosisRepositoryAdapter--><g class="entity" data-qualified-name="layer_3.JpaDiagnosisRepositoryAdapter" id="ent0034" data-source-line="106"><rect x="1322.99" y="1202.594" width="195.006" height="37.938" fill="#F1F1F1" style="stroke:#536578;stroke-width:0.5;" rx="2.5" ry="2.5"/><text x="1389.242" y="1218.732" fill="#000" font-size="12" textLength="62.502" font-style="italic" font-family="DejaVu Sans">«Adapter»</text><text x="1325.99" y="1232.701" fill="#000" font-size="12" textLength="189.006" font-family="DejaVu Sans">JpaDiagnosisRepositoryAdapter</text></g><g class="entity" data-qualified-name="layer_3.GMN35" id="ent0036" data-source-line="109"><path d="M1323.49,1349.594 L1323.49,1429.438 A0,0 0 0 0 1323.49,1429.438 L1555.597,1429.438 A0,0 0 0 0 1555.597,1429.438 L1555.597,1359.594 L1545.597,1349.594 L1439.02,1349.594 L1422.56,1240.674 L1431.02,1349.594 L1323.49,1349.594 A0,0 0 0 0 1323.49,1349.594" style="stroke:#C9BB8B;stroke-width:0.5;" fill="#FFFFF4"/><path d="M1545.597,1349.594 L1545.597,1359.594 L1555.597,1359.594 L1545.597,1349.594" style="stroke:#C9BB8B;stroke-width:0.5;" fill="#FFFFF4"/><text x="1329.49" y="1365.732" fill="#000" font-size="12" textLength="117.914" font-family="DejaVu Sans">PostgreSQL común:</text><text x="1329.49" y="1379.701" fill="#000" font-size="12" textLength="121.277" font-family="DejaVu Sans">diagnosis.diagnoses</text><text x="1329.49" y="1393.67" fill="#000" font-size="12" textLength="169.354" font-family="DejaVu Sans">diagnosis.recommendations</text><text x="1329.49" y="1407.639" fill="#000" font-size="12" textLength="211.107" font-family="DejaVu Sans">diagnosis.diagnosis_evidence_links</text><text x="1329.49" y="1421.607" fill="#000" font-size="12" textLength="196.816" font-family="DejaVu Sans">diagnosis.diagnosis_source_links</text></g><!--class RagRetrievalExternal--><g class="entity" data-qualified-name="layer_4.RagRetrievalExternal" id="ent0039" data-source-line="118"><rect x="2673.49" y="1370.594" width="89.525" height="37.938" fill="#F1F1F1" style="stroke:#536578;stroke-width:0.5;" rx="2.5" ry="2.5"/><text x="2685.912" y="1386.732" fill="#000" font-size="12" textLength="64.682" font-style="italic" font-family="DejaVu Sans">«External»</text><text x="2676.49" y="1400.701" fill="#000" font-size="12" textLength="83.525" font-family="DejaVu Sans">RAG Retrieval</text></g><!--class AzureOpenAiExternal--><g class="entity" data-qualified-name="layer_4.AzureOpenAiExternal" id="ent0040" data-source-line="120"><rect x="2497.49" y="1370.594" width="136.207" height="37.938" fill="#F1F1F1" style="stroke:#536578;stroke-width:0.5;" rx="2.5" ry="2.5"/><text x="2533.253" y="1386.732" fill="#000" font-size="12" textLength="64.682" font-style="italic" font-family="DejaVu Sans">«External»</text><text x="2500.49" y="1400.701" fill="#000" font-size="12" textLength="130.207" font-family="DejaVu Sans">Azure OpenAI Service</text></g><!--link DiagnosticOutputComposer to GMN15--><g class="link" data-entity-1="ent0014" data-entity-2="ent0016" id="lnk17" data-source-line="54" data-link-type="association"><path d="M389.4,543.614 C419.99,550.774 452.91,558.214 483.49,564.594 C655.54,600.464 706.49,577.894 872.49,635.594 C947.65,661.714 1028.74,712.094 1062.87,734.444" style="stroke:#536578;stroke-width:1;stroke-dasharray:7,7;" fill="none" id="DiagnosticOutputComposer-GMN15"/></g><!--link Diagnosis to GMN20--><g class="link" data-entity-1="ent0019" data-entity-2="ent0021" id="lnk22" data-source-line="77" data-link-type="association"><path d="M396.66,845.514 C403.62,849.744 410.59,853.794 417.49,857.594 C446.49,873.544 456.26,872.124 486.49,885.594 C552.45,914.974 627.82,952.524 671.02,974.424" style="stroke:#536578;stroke-width:1;stroke-dasharray:7,7;" fill="none" id="Diagnosis-GMN20"/></g><!--link DiagnosticOrchestrator to SanitizedDiagnosticContext--><!--link SanitizedDiagnosticContext to RagRetrievalHttpAdapter--><!--link RagRetrievalHttpAdapter to RagRetrievalExternal--><!--link RagRetrievalHttpAdapter to RagRetrievalExternal--><g class="link" data-entity-1="ent0028" data-entity-2="ent0039" id="lnk47" data-source-line="129" data-link-type="dependency"><path d="M2257.14,1251.644 C2310.86,1267.324 2380.36,1285.324 2443.49,1294.594 C2466.6,1297.984 2632.79,1291.794 2653.49,1302.594 C2681.37,1317.134 2698.474,1345.122 2708.444,1365.752" style="stroke:#536578;stroke-width:1;" fill="none" id="RagRetrievalHttpAdapter-to-RagRetrievalExternal-1" codeLine="129"/><polygon points="2710.62,1370.254,2710.305,1360.41,2708.444,1365.752,2703.102,1363.891,2710.62,1370.254" fill="#536578" style="stroke:#536578;stroke-width:1;stroke-linejoin:miter;stroke-miterlimit:10;"/><text x="2444.49" y="1291.732" fill="#000" font-size="12" textLength="142.623" font-family="DejaVu Sans">calls_http / REST/HTTPS</text></g><!--link DiagnosticOrchestrator to KnowledgeRetrievalPort--><g class="link" data-entity-1="ent0002" data-entity-2="ent0003" id="lnk44" data-source-line="127" data-link-type="dependency"><path d="M1244.34,180.624 C1319.35,201.804 1415.778,229.015 1490.798,250.195" style="stroke:#536578;stroke-width:1;" fill="none" id="DiagnosticOrchestrator-to-KnowledgeRetrievalPort" codeLine="127"/><polygon points="1495.61,251.554,1488.035,245.259,1490.798,250.195,1485.862,252.958,1495.61,251.554" fill="#536578" style="stroke:#536578;stroke-width:1;stroke-linejoin:miter;stroke-miterlimit:10;"/><text x="1384.49" y="220.732" fill="#000" font-size="12" textLength="138.498" font-family="DejaVu Sans">recupera conocimiento</text></g><!--reverse link KnowledgeRetrievalPort to RagRetrievalHttpAdapter--><g class="link" data-entity-1="ent0003" data-entity-2="ent0028" id="lnk46" data-source-line="128" data-link-type="extension"><path d="M1739.481,317.136 C1837.721,348.426 1941.49,403.614 1941.49,512.594 C1941.49,512.594 1941.49,512.594 1941.49,994.594 C1941.49,1087.264 2037.68,1155.524 2103.99,1191.574" style="stroke:#536578;stroke-width:1;stroke-dasharray:7,7;" fill="none" id="KnowledgeRetrievalPort-backto-RagRetrievalHttpAdapter" codeLine="128"/><polygon points="1722.33,311.674,1737.66,322.853,1741.302,311.419,1722.33,311.674" fill="none" style="stroke:#536578;stroke-width:1;stroke-linejoin:miter;stroke-miterlimit:10;"/><text x="1942.49" y="751.232" fill="#000" font-size="12" textLength="70.992" font-family="DejaVu Sans">implements</text></g><!--link DiagnosticOrchestrator to DiagnosticLlmGateway--><g class="link" data-entity-1="ent0002" data-entity-2="ent0004" id="lnk48" data-source-line="130" data-link-type="dependency"><path d="M1140.36,180.864 C1139.54,201.974 1138.634,225.358 1137.814,246.438" style="stroke:#536578;stroke-width:1;" fill="none" id="DiagnosticOrchestrator-to-DiagnosticLlmGateway" codeLine="130"/><polygon points="1137.62,251.434,1141.967,242.596,1137.814,246.438,1133.973,242.285,1137.62,251.434" fill="#536578" style="stroke:#536578;stroke-width:1;stroke-linejoin:miter;stroke-miterlimit:10;"/><text x="1139.49" y="220.732" fill="#000" font-size="12" textLength="105.82" font-family="DejaVu Sans">solicita inferencia</text></g><!--link DiagnosticLlmGateway to SanitizedDiagnosticContext--><g class="link" data-entity-1="ent0004" data-entity-2="ent0006" id="lnk49" data-source-line="131" data-link-type="dependency"><path d="M1040.21,311.684 C961.43,335.514 862.63,365.494 860.49,366.594 C807.26,394.084 757.643,433.738 721.273,465.958" style="stroke:#536578;stroke-width:1;" fill="none" id="DiagnosticLlmGateway-to-SanitizedDiagnosticContext" codeLine="131"/><polygon points="717.53,469.274,726.919,466.3,721.273,465.958,721.614,460.312,717.53,469.274" fill="#536578" style="stroke:#536578;stroke-width:1;stroke-linejoin:miter;stroke-miterlimit:10;"/><text x="929.49" y="355.732" fill="#000" font-size="12" textLength="83.262" font-family="DejaVu Sans">única entrada</text></g><!--reverse link DiagnosticLlmGateway to AzureOpenAiDiagnosticAdapter--><g class="link" data-entity-1="ent0004" data-entity-2="ent0029" id="lnk51" data-source-line="132" data-link-type="extension"><path d="M1245.584,317.373 C1371.634,359.943 1565.49,436.744 1565.49,512.594 C1565.49,512.594 1565.49,512.594 1565.49,994.594 C1565.49,1075.274 1630.35,1151.554 1671.14,1191.544" style="stroke:#536578;stroke-width:1;stroke-dasharray:7,7;" fill="none" id="DiagnosticLlmGateway-backto-AzureOpenAiDiagnosticAdapter" codeLine="132"/><polygon points="1228.53,311.614,1243.664,323.058,1247.504,311.689,1228.53,311.614" fill="none" style="stroke:#536578;stroke-width:1;stroke-linejoin:miter;stroke-miterlimit:10;"/><text x="1566.49" y="751.232" fill="#000" font-size="12" textLength="70.992" font-family="DejaVu Sans">implements</text></g><!--link AzureOpenAiDiagnosticAdapter to AzureOpenAiExternal--><g class="link" data-entity-1="ent0029" data-entity-2="ent0040" id="lnk52" data-source-line="133" data-link-type="dependency"><path d="M1837.43,1251.684 C1848.26,1253.774 1859.05,1255.774 1869.49,1257.594 C1987.95,1278.234 2017.65,1284.864 2137.49,1294.594 C2173.17,1297.494 2425.92,1290.214 2459.49,1302.594 C2497.07,1316.444 2527.874,1345.787 2546.754,1366.637" style="stroke:#536578;stroke-width:1;" fill="none" id="AzureOpenAiDiagnosticAdapter-to-AzureOpenAiExternal" codeLine="133"/><polygon points="2550.11,1370.344,2547.034,1360.988,2546.754,1366.637,2541.104,1366.357,2550.11,1370.344" fill="#536578" style="stroke:#536578;stroke-width:1;stroke-linejoin:miter;stroke-miterlimit:10;"/><text x="2138.49" y="1291.732" fill="#000" font-size="12" textLength="216.598" font-family="DejaVu Sans">calls_http / Azure OpenAI API/HTTPS</text></g><!--link AzureOpenAiDiagnosticAdapter to LlmResponseTranslator--><g class="link" data-entity-1="ent0029" data-entity-2="ent0030" id="lnk53" data-source-line="134" data-link-type="dependency"><path d="M1702.97,1251.894 C1702.42,1282.234 1701.661,1324.355 1701.111,1354.595" style="stroke:#536578;stroke-width:1;" fill="none" id="AzureOpenAiDiagnosticAdapter-to-LlmResponseTranslator" codeLine="134"/><polygon points="1701.02,1359.594,1705.183,1350.668,1701.111,1354.595,1697.184,1350.522,1701.02,1359.594" fill="#536578" style="stroke:#536578;stroke-width:1;stroke-linejoin:miter;stroke-miterlimit:10;"/><text x="1702.49" y="1291.732" fill="#000" font-size="12" textLength="105.387" font-family="DejaVu Sans">ACL de respuesta</text></g><!--reverse link Diagnosis to LlmResponseTranslator--><g class="link" data-entity-1="ent0019" data-entity-2="ent0030" id="lnk55" data-source-line="135" data-link-type="dependency"><path d="M401.387,850.829 C408.197,854.139 410.58,854.974 417.49,857.594 C557.47,910.744 982.33,822.024 1087.49,928.594 C1141.73,983.554 1066.45,1033.844 1103.49,1101.594 C1157.57,1200.504 1200.25,1212.324 1303.49,1257.594 C1415.71,1306.794 1461.85,1256.774 1575.49,1302.594 C1609.33,1316.234 1643.14,1340.294 1667.05,1359.494" style="stroke:#536578;stroke-width:1;" fill="none" id="Diagnosis-backto-LlmResponseTranslator" codeLine="135"/><polygon points="396.89,848.644,403.236,856.176,401.387,850.829,406.733,848.981,396.89,848.644" fill="#536578" style="stroke:#536578;stroke-width:1;stroke-linejoin:miter;stroke-miterlimit:10;"/><text x="1104.49" y="1098.732" fill="#000" font-size="12" textLength="82.225" font-family="DejaVu Sans">tipos internos</text></g><!--link DiagnosticOrchestrator to DiagnosticOutputComposer--><g class="link" data-entity-1="ent0002" data-entity-2="ent0014" id="lnk56" data-source-line="136" data-link-type="dependency"><path d="M991.32,157.244 C874.53,166.534 710.96,190.474 580.49,251.594 C457.53,309.194 347.084,424.541 298.544,479.671" style="stroke:#536578;stroke-width:1;" fill="none" id="DiagnosticOrchestrator-to-DiagnosticOutputComposer" codeLine="136"/><polygon points="295.24,483.424,304.19,479.312,298.544,479.671,298.185,474.026,295.24,483.424" fill="#536578" style="stroke:#536578;stroke-width:1;stroke-linejoin:miter;stroke-miterlimit:10;"/><text x="581.49" y="286.232" fill="#000" font-size="12" textLength="166.729" font-family="DejaVu Sans">compone diagnostic_output</text></g><!--link DiagnosticOrchestrator to Diagnosis--><g class="link" data-entity-1="ent0002" data-entity-2="ent0019" id="lnk57" data-source-line="137" data-link-type="dependency"><path d="M991.27,157.584 C720.41,171.994 168.06,219.194 58.49,366.594 C6,437.224 22.31,484.374 58.49,564.594 C74.5,600.084 97.578,628.054 126.598,654.244" style="stroke:#536578;stroke-width:1;" fill="none" id="DiagnosticOrchestrator-to-Diagnosis" codeLine="137"/><polygon points="130.31,657.594,126.309,648.594,126.598,654.244,120.949,654.533,130.31,657.594" fill="#536578" style="stroke:#536578;stroke-width:1;stroke-linejoin:miter;stroke-miterlimit:10;"/><text x="79.49" y="355.732" fill="#000" font-size="12" textLength="119.344" font-family="DejaVu Sans">snapshot propuesto</text></g><!--link DiagnosticOutputComposer to Diagnosis--><g class="link" data-entity-1="ent0014" data-entity-2="ent0019" id="lnk58" data-source-line="138" data-link-type="dependency"><path d="M269.61,543.854 C268.9,567.284 268.001,596.716 266.981,630.526" style="stroke:#536578;stroke-width:1;" fill="none" id="DiagnosticOutputComposer-to-Diagnosis" codeLine="138"/><polygon points="266.83,635.524,271.1,626.648,266.981,630.526,263.103,626.407,266.83,635.524" fill="#536578" style="stroke:#536578;stroke-width:1;stroke-linejoin:miter;stroke-miterlimit:10;"/><text x="268.49" y="604.732" fill="#000" font-size="12" textLength="114.123" font-family="DejaVu Sans">compone snapshot</text></g><!--reverse link Diagnosis to Recommendation--><g class="link" data-entity-1="ent0019" data-entity-2="ent0023" id="lnk59" data-source-line="139" data-link-type="composition"><path d="M347.358,867.754 C364.198,891.884 374.62,906.814 389.7,928.424" style="stroke:#536578;stroke-width:1;" fill="none" id="Diagnosis-backto-Recommendation" codeLine="139"/><polygon points="340.49,857.914,340.644,865.123,347.358,867.754,347.204,860.545,340.49,857.914" fill="#536578" style="stroke:#536578;stroke-width:1;stroke-linejoin:miter;stroke-miterlimit:10;"/><text x="369.49" y="897.732" fill="#000" font-size="12" textLength="106.418" font-family="DejaVu Sans">recomendaciones</text><text x="361.976" y="917.902" fill="#000" font-size="12" textLength="21.264" font-family="DejaVu Sans">0..*</text></g><!--reverse link Diagnosis to ProbableCause--><g class="link" data-entity-1="ent0019" data-entity-2="ent0010" id="lnk60" data-source-line="140" data-link-type="composition"><path d="M263.99,869.914 C264.15,908.644 264.27,937.024 264.38,963.344" style="stroke:#536578;stroke-width:1;" fill="none" id="Diagnosis-backto-ProbableCause" codeLine="140"/><polygon points="263.94,857.914,259.965,863.93,263.99,869.914,267.965,863.897,263.94,857.914" fill="#536578" style="stroke:#536578;stroke-width:1;stroke-linejoin:miter;stroke-miterlimit:10;"/><text x="264.49" y="897.732" fill="#000" font-size="12" textLength="53.824" font-family="DejaVu Sans">hipótesis</text><text x="239.807" y="952.654" fill="#000" font-size="12" textLength="22.898" font-family="DejaVu Sans">0..1</text></g><!--link DiagnosticOrchestrator to DiagnosisRepository--><g class="link" data-entity-1="ent0002" data-entity-2="ent0018" id="lnk61" data-source-line="141" data-link-type="dependency"><path d="M991.16,172.534 C944.42,186.904 897.78,211.054 869.49,251.594 C816.59,327.414 906.403,408.145 983.663,459.795" style="stroke:#536578;stroke-width:1;" fill="none" id="DiagnosticOrchestrator-to-DiagnosisRepository" codeLine="141"/><polygon points="987.82,462.574,982.561,454.246,983.663,459.795,978.115,460.897,987.82,462.574" fill="#536578" style="stroke:#536578;stroke-width:1;stroke-linejoin:miter;stroke-miterlimit:10;"/><text x="870.49" y="286.232" fill="#000" font-size="12" textLength="100.113" font-family="DejaVu Sans">inserta snapshot</text></g><!--reverse link DiagnosisRepository to JpaDiagnosisRepositoryAdapter--><g class="link" data-entity-1="ent0018" data-entity-2="ent0034" id="lnk63" data-source-line="142" data-link-type="extension"><path d="M1217.694,573.508 C1249.744,591.508 1265.51,606.064 1287.49,635.594 C1357.85,730.114 1407.73,1114.494 1418.37,1202.554" style="stroke:#536578;stroke-width:1;stroke-dasharray:7,7;" fill="none" id="DiagnosisRepository-backto-JpaDiagnosisRepositoryAdapter" codeLine="142"/><polygon points="1202,564.694,1214.756,578.739,1220.632,568.277,1202,564.694" fill="none" style="stroke:#536578;stroke-width:1;stroke-linejoin:miter;stroke-miterlimit:10;"/><text x="1371.49" y="897.732" fill="#000" font-size="12" textLength="70.992" font-family="DejaVu Sans">implements</text></g><!--reverse link Diagnosis to JpaDiagnosisRepositoryAdapter--><g class="link" data-entity-1="ent0019" data-entity-2="ent0034" id="lnk65" data-source-line="143" data-link-type="dependency"><path d="M401.042,850.3 C407.962,853.8 410.49,854.754 417.49,857.594 C516.02,897.474 787.85,901.004 890.49,928.594 C1075.09,978.214 1131.49,980.504 1290.49,1086.594 C1339.84,1119.514 1385.06,1173.844 1406.85,1202.154" style="stroke:#536578;stroke-width:1;" fill="none" id="Diagnosis-backto-JpaDiagnosisRepositoryAdapter" codeLine="143"/><polygon points="396.58,848.044,402.806,855.675,401.042,850.3,406.417,848.536,396.58,848.044" fill="#536578" style="stroke:#536578;stroke-width:1;stroke-linejoin:miter;stroke-miterlimit:10;"/><text x="1246.49" y="998.232" fill="#000" font-size="12" textLength="74.906" font-family="DejaVu Sans">append-only</text></g><!--reverse link Recommendation to JpaDiagnosisRepositoryAdapter--><g class="link" data-entity-1="ent0023" data-entity-2="ent0034" id="lnk67" data-source-line="144" data-link-type="dependency"><path d="M506.907,1052.025 C513.407,1055.545 515.72,1056.234 522.49,1058.594 C664.27,1107.974 1050.49,1056.134 1197.49,1086.594 C1215.68,1090.364 1218.57,1096.734 1236.49,1101.594 C1257.79,1107.364 1265.39,1100.494 1285.49,1109.594 C1334.98,1131.984 1381.26,1177.334 1404.63,1202.584" style="stroke:#536578;stroke-width:1;" fill="none" id="Recommendation-backto-JpaDiagnosisRepositoryAdapter" codeLine="144"/><polygon points="502.51,1049.644,508.519,1057.447,506.907,1052.025,512.329,1050.412,502.51,1049.644" fill="#536578" style="stroke:#536578;stroke-width:1;stroke-linejoin:miter;stroke-miterlimit:10;"/><text x="1237.49" y="1098.732" fill="#000" font-size="12" textLength="46.729" font-family="DejaVu Sans">persists</text></g><g class="legend" data-source-line="146"><rect x="1067.164" y="1546.594" width="652.161" height="107.781" fill="#DDD" style="stroke:#000;stroke-width:1;" rx="7.5" ry="7.5"/><text x="1072.164" y="1564.589" fill="#000" font-size="14" textLength="446.742" font-family="DejaVu Sans">recommendation_service / Java / Spring Boot / status: proposed</text><text x="1072.164" y="1580.886" fill="#000" font-size="14" textLength="511.991" font-family="DejaVu Sans">CQRS lógico / misma instancia PostgreSQL / dependencias por interfaces</text><text x="1072.164" y="1597.183" fill="#000" font-size="14" textLength="617.477" font-family="DejaVu Sans">DiagnosticOutputComposer realiza diagnostic_output_component dentro de esta figura.</text><text x="1072.164" y="1613.479" fill="#000" font-size="14" textLength="613.751" font-family="DejaVu Sans">Solo evidencia saneada, contexto autorizado y conocimiento RAG alcanzan el gateway.</text><text x="1072.164" y="1629.776" fill="#000" font-size="14" textLength="642.161" font-family="DejaVu Sans">Cada snapshot diagnóstico es inmutable; DIAGNOSIS_READY exige causa probable y fecha.</text><text x="1072.164" y="1646.073" fill="#000" font-size="14" textLength="603.873" font-family="DejaVu Sans">Recomendaciones y vínculos se insertan con el snapshot; IDs lógicos entre contextos.</text></g><g class="footer" data-source-line="21"><text x="1294.5" y="1676.657" fill="#888" font-size="10" textLength="197.49" font-family="DejaVu Sans">Modelo 1.0.0 - CD-2 - Diseño propuesto</text></g></g></svg>